<svg width="8" height="11" viewBox="0 0 8 11" fill="none" xmlns="http://www.w3.org/2000/svg">
<path fill-rule="evenodd" clip-rule="evenodd" d="M0 4.00003C0 1.79089 1.79086 3.05176e-05 4 3.05176e-05C6.20914 3.05176e-05 8 1.79089 8 4.00003C8 5.86387 6.72523 7.42997 5 7.87401V10C5 10.5523 4.55228 11 4 11C3.44772 11 3 10.5523 3 10L3 7.87401C1.27477 7.42997 0 5.86387 0 4.00003ZM2 4.00003C2 2.89546 2.89543 2.00003 4 2.00003C5.10457 2.00003 6 2.89546 6 4.00003C6 5.1046 5.10457 6.00003 4 6.00003C2.89543 6.00003 2 5.1046 2 4.00003Z" fill="#0445A3"/>
</svg>
